<?xml version="1.0" encoding="UTF-8" standalone="no"?>
<!-- Created with Inkscape (http://www.inkscape.org/) -->

<svg
   xmlns:dc="http://purl.org/dc/elements/1.1/"
   xmlns:cc="http://creativecommons.org/ns#"
   xmlns:rdf="http://www.w3.org/1999/02/22-rdf-syntax-ns#"
   xmlns:svg="http://www.w3.org/2000/svg"
   xmlns="http://www.w3.org/2000/svg"
   xmlns:sodipodi="http://sodipodi.sourceforge.net/DTD/sodipodi-0.dtd"
   xmlns:inkscape="http://www.inkscape.org/namespaces/inkscape"
   width="20mm"
   height="20mm"
   viewBox="0 0 20 20"
   version="1.1"
   id="svg846"
   inkscape:version="0.92.5 (2060ec1f9f, 2020-04-08)"
   sodipodi:docname="logo2.svg">
  <defs
     id="defs840" />
  <sodipodi:namedview
     id="base"
     pagecolor="#ffffff"
     bordercolor="#666666"
     borderopacity="1.0"
     inkscape:pageopacity="0.0"
     inkscape:pageshadow="2"
     inkscape:zoom="1.4"
     inkscape:cx="-12.142238"
     inkscape:cy="17.01072"
     inkscape:document-units="mm"
     inkscape:current-layer="layer1"
     showgrid="false"
     inkscape:window-width="660"
     inkscape:window-height="739"
     inkscape:window-x="662"
     inkscape:window-y="0"
     inkscape:window-maximized="0" />
  <metadata
     id="metadata843">
    <rdf:RDF>
      <cc:Work
         rdf:about="">
        <dc:format>image/svg+xml</dc:format>
        <dc:type
           rdf:resource="http://purl.org/dc/dcmitype/StillImage" />
        <dc:title></dc:title>
      </cc:Work>
    </rdf:RDF>
  </metadata>
  <g
     inkscape:label="Capa 1"
     inkscape:groupmode="layer"
     id="layer1"
     transform="translate(0,-277)">
    <path
       style="fill:#000000;stroke-width:0.08227811"
       d="m 8.7345876,296.06951 c -1.3188587,-0.15292 -2.8614557,-0.68847 -4.0822697,-1.41725 -0.71877,-0.42907 -2.184829,-1.77278 -2.652975,-2.43156 -2.09249602,-2.94459 -2.15676502,-6.72431 -0.163134,-9.59403 l 0.366747,-0.52791 -0.236342,-0.42766 c -0.286947,-0.51924 -0.305292,-1.00071 -0.05724,-1.5022 0.235636,-0.47638 0.469046,-0.69418 0.981117,-0.91551 0.680605,-0.29417 1.393373,-0.22942 1.997244,0.18144 l 0.278393,0.18941 0.624004,-0.27421 c 3.1312754,-1.37601 6.6730391,-1.15739 9.6049961,0.59286 0.71877,0.42908 2.184829,1.77278 2.652975,2.43157 2.161349,3.04148 2.161349,6.80476 0,9.84624 -0.468146,0.65878 -1.934205,2.00249 -2.652975,2.43156 -2.005835,1.19741 -4.316436,1.68906 -6.6605454,1.41725 z m 2.9692644,-0.66405 c 3.625391,-0.63033 6.47831,-3.24515 7.166035,-6.56797 0.172641,-0.83414 0.172641,-2.24568 0,-3.07982 -0.687725,-3.32282 -3.540644,-5.93764 -7.166035,-6.56797 -0.908227,-0.15791 -2.4496456,-0.15832 -3.3550705,-9e-4 -0.7642826,0.13288 -1.6977506,0.41764 -2.3379556,0.71322 l -0.403314,0.1862 0.05038,0.55079 c 0.06452,0.70539 -0.103809,1.13438 -0.614354,1.56571 -0.551546,0.46597 -1.324621,0.60845 -2.036526,0.37535 l -0.313197,-0.10255 -0.408044,0.61865 c -1.59929402,2.42474 -1.66651302,5.65835 -0.169513,8.15451 1.276458,2.12842 3.459942,3.61444 6.0597023,4.12407 0.9375504,0.18379 2.5659178,0.19796 3.5278908,0.0307 z m -2.4536093,-1.73584 c -0.8112084,-0.10948 -1.5636198,-0.32682 -2.3634188,-0.6827 -0.807916,-0.35949 -0.992963,-0.48454 -1.767399,-1.19434 -0.774437,-0.70981 -0.910872,-0.87941 -1.303098,-1.6199 -0.567814,-1.07198 -0.748887,-1.76715 -0.748887,-2.8751 0,-1.10795 0.181073,-1.80312 0.748887,-2.8751 0.392226,-0.74049 0.528661,-0.9101 1.303098,-1.6199 0.774436,-0.7098 0.959483,-0.83485 1.767399,-1.19434 1.169597,-0.52043 1.928064,-0.68639 3.1369011,-0.68639 1.208838,0 1.967305,0.16596 3.136902,0.68639 0.807916,0.35949 0.992963,0.48454 1.7674,1.19434 0.774435,0.7098 0.910871,0.87941 1.303096,1.6199 0.240952,0.45489 0.508193,1.09293 0.593869,1.41785 0.206885,0.78462 0.207567,2.20545 0.0014,2.9213 l -0.149419,0.51882 0.304447,0.41464 c 0.371388,0.50583 0.411128,1.01357 0.12215,1.5607 -0.329881,0.62457 -1.252333,0.96851 -1.97677,0.73705 -0.25574,-0.0817 -0.30223,-0.07 -0.542823,0.1366 -0.658561,0.56555 -1.790786,1.11154 -2.822143,1.36092 -0.611071,0.14776 -2.0068268,0.24738 -2.511593,0.17926 z m 2.5353043,-0.7794 c 0.673307,-0.19068 1.594605,-0.62817 2.100884,-0.99763 0.238931,-0.17436 0.431969,-0.34024 0.428972,-0.36861 -0.003,-0.0284 -0.07476,-0.19233 -0.159469,-0.36435 -0.479235,-0.97312 0.333012,-2.08973 1.520121,-2.08973 0.38571,0 0.401712,-0.01 0.497138,-0.29538 0.05423,-0.16247 0.117555,-0.70303 0.140724,-1.20125 0.06712,-1.4433 -0.233547,-2.41387 -1.115546,-3.60107 -0.656701,-0.88394 -1.558117,-1.55751 -2.702418,-2.01936 -1.471447,-0.59389 -3.4730085,-0.59389 -4.9444551,0 -1.144302,0.46185 -2.045717,1.13542 -2.702418,2.01936 -0.806278,1.08528 -1.139145,2.05698 -1.139145,3.32538 0,1.51674 0.592143,2.89079 1.73588,4.02804 0.699223,0.69526 2.104769,1.42259 3.183707,1.64749 0.7116635,0.14833 2.5059231,0.10121 3.1560251,-0.0829 z m -2.5353043,-1.69526 c -0.5689223,-0.10467 -1.2913548,-0.38203 -1.6883258,-0.64821 -0.32809,-0.21999 -0.432645,-0.24845 -0.846979,-0.23052 -0.354192,0.0153 -0.542898,-0.0197 -0.752782,-0.13959 -0.63767,-0.36438 -0.81892,-1.13427 -0.400177,-1.69983 0.203116,-0.27433 0.217227,-0.34466 0.164923,-0.822 -0.274651,-2.50662 2.244345,-4.67534 4.9541021,-4.26523 2.347441,0.35528 3.985988,2.40447 3.606569,4.51042 -0.393911,2.1864 -2.735943,3.71834 -5.0373303,3.29496 z m 2.3010103,-0.84426 c 0.764173,-0.32852 1.44266,-0.94945 1.806302,-1.65308 0.258385,-0.49996 0.275756,-0.58815 0.275756,-1.40004 0,-0.81189 -0.01737,-0.90008 -0.275756,-1.40004 -0.362261,-0.70096 -1.041517,-1.32353 -1.806302,-1.65556 -0.545487,-0.23682 -0.641713,-0.25274 -1.527528,-0.25274 -0.8858143,0 -0.9820407,0.0159 -1.5275273,0.25274 -0.7662578,0.33267 -1.4446128,0.95488 -1.8049408,1.65556 -0.247906,0.48206 -0.274526,0.60576 -0.275756,1.28143 l -0.0014,0.74786 0.354107,0.0438 c 0.438432,0.0542 0.763272,0.24342 0.981783,0.57188 0.195778,0.29428 0.218484,0.86719 0.0457,1.15313 -0.104344,0.17267 -0.0974,0.20597 0.0675,0.32363 0.6307609,0.45007 1.3082611,0.6285 2.2894031,0.60297 0.710068,-0.0185 0.892311,-0.0539 1.398614,-0.27152 z m -1.471112,-1.47944 c -0.2546833,-0.19642 -0.2610748,-0.19711 -0.5698508,-0.0622 -0.4015768,0.17552 -0.5938083,0.0774 -0.6307282,-0.3219 -0.022999,-0.24875 -0.072968,-0.31056 -0.3437701,-0.42526 -0.516952,-0.21895 -0.559826,-0.35235 -0.2290409,-0.71265 0.2143012,-0.23343 0.2150619,-0.23929 0.067817,-0.5223 -0.1914986,-0.36806 -0.084456,-0.54425 0.3512154,-0.57809 0.271399,-0.0211 0.3388415,-0.0669 0.4639798,-0.31507 0.2388859,-0.47381 0.3844321,-0.51311 0.777547,-0.20993 0.2546828,0.19642 0.2610748,0.19711 0.5698508,0.0622 0.401576,-0.17552 0.593808,-0.0774 0.630727,0.3219 0.023,0.24875 0.07297,0.31056 0.343771,0.42526 0.516952,0.21895 0.559826,0.35235 0.229041,0.71265 -0.214301,0.23343 -0.215062,0.23929 -0.06782,0.52229 0.191499,0.36807 0.08446,0.54425 -0.351216,0.57809 -0.271398,0.0211 -0.338841,0.0669 -0.463979,0.31508 -0.238886,0.47381 -0.384432,0.51311 -0.777547,0.20993 z m 0.676726,-1.06168 c 0.153898,0 0.170058,-0.0341 0.12361,-0.26105 -0.03861,-0.18861 -0.0152,-0.29014 0.08435,-0.36586 0.123224,-0.0937 0.110299,-0.12012 -0.122345,-0.24979 -0.154162,-0.0859 -0.260126,-0.21109 -0.260126,-0.30726 0,-0.14105 -0.03724,-0.15586 -0.284825,-0.11329 -0.205786,0.0354 -0.316556,0.0139 -0.3991708,-0.0773 -0.1022673,-0.11294 -0.1310589,-0.10109 -0.2725392,0.11214 -0.093751,0.14129 -0.2303105,0.23841 -0.3352334,0.23841 -0.1538973,0 -0.1700571,0.0341 -0.1236094,0.26106 0.038605,0.18861 0.015199,0.29014 -0.084346,0.36586 -0.1232244,0.0937 -0.1102995,0.12012 0.1223452,0.24979 0.1541619,0.0859 0.2601256,0.21109 0.2601256,0.30725 0,0.14106 0.037237,0.15587 0.2848247,0.1133 0.2057859,-0.0354 0.3165563,-0.0139 0.3991713,0.0773 0.102267,0.11294 0.131059,0.1011 0.272539,-0.11213 0.09375,-0.1413 0.230311,-0.23842 0.335233,-0.23842 z m -3.8405931,1.8818 c 0.419709,-0.17528 0.517084,-0.67911 0.189312,-0.97952 -0.509772,-0.46723 -1.358434,0.053 -1.082497,0.66359 0.15707,0.34755 0.514616,0.47402 0.893185,0.31593 z m 9.1243061,1.70698 c 0.330181,-0.12645 0.643048,-0.53116 0.643048,-0.83183 0,-0.30787 -0.314496,-0.706 -0.663162,-0.83953 -0.577883,-0.2213 -1.216796,0.10174 -1.35681,0.68602 -0.07992,0.33349 0.185742,0.78961 0.559592,0.96078 0.364926,0.16709 0.43931,0.16932 0.817332,0.0246 z m -11.6031181,-9.4977 c 1.007187,-0.56833 0.644529,-2.12177 -0.515655,-2.2088 -0.560651,-0.0421 -0.741366,0.008 -1.082097,0.29981 -0.585065,0.50103 -0.611915,1.20848 -0.06548,1.72521 0.464262,0.43902 1.088639,0.50801 1.663229,0.18378 z"
       id="path1400"
       inkscape:connector-curvature="0" />
  </g>
</svg>
